<svg width="58" height="66" viewBox="0 0 58 66" fill="none" xmlns="http://www.w3.org/2000/svg">
<path d="M28.6165 0.439697C25.9488 0.439697 23.7053 2.28601 23.0938 4.76753C16.921 5.97915 11.2899 9.21835 7.11025 13.9947C2.55627 19.1986 0.0483398 25.8773 0.0483398 32.8001C0.0483398 33.8473 0.897296 34.6963 1.94446 34.6963C2.99162 34.6963 3.84058 33.8473 3.84058 32.8001C3.84058 26.7961 6.0153 21.0045 9.96416 16.492C13.511 12.4387 18.2606 9.66065 23.4748 8.55838C24.3879 10.4824 26.349 11.8164 28.6165 11.8164C31.7531 11.8164 34.3049 9.26462 34.3049 6.12806C34.3049 2.9915 31.7531 0.439697 28.6165 0.439697Z" fill="url(#paint0_linear)"/>
<path d="M44.8682 29.3575C44.4097 29.0385 43.5373 28.5343 42.9154 28.2657L41.9336 25.8955C42.1759 25.2847 42.4409 24.3075 42.5424 23.7428C42.6522 23.1318 42.4559 22.5057 42.0169 22.0666L39.35 19.3997C38.9109 18.9605 38.2847 18.7642 37.6738 18.8742C37.1177 18.9742 36.1468 19.2347 35.5211 19.483L33.1509 18.5012C32.891 17.8992 32.3873 17.0201 32.0591 16.5484C31.7047 16.0387 31.1232 15.7349 30.5024 15.7349H26.7308C26.11 15.7349 25.5285 16.0387 25.1741 16.5484C24.8551 17.0069 24.3509 17.8792 24.0823 18.5012L21.7121 19.483C21.1013 19.2407 20.1241 18.9757 19.5594 18.8742C18.9487 18.7646 18.3222 18.9608 17.8832 19.3997L15.2163 22.0666C14.7773 22.5057 14.5809 23.1318 14.6908 23.7428C14.7908 24.2989 15.0513 25.2698 15.2996 25.8955L14.3178 28.2657C13.7158 28.5256 12.8366 29.0293 12.365 29.3575C11.8553 29.7119 11.5515 30.2934 11.5515 30.9142V34.6858C11.5515 35.3066 11.8553 35.8881 12.365 36.2425C12.8235 36.5615 13.6958 37.0657 14.3178 37.3343L15.2996 39.7045C15.0573 40.3153 14.7923 41.2925 14.6908 41.8572C14.5809 42.4683 14.7773 43.0944 15.2163 43.5334L17.8832 46.2003C18.3221 46.6393 18.948 46.8354 19.5594 46.7258C20.1155 46.6258 21.0864 46.3653 21.7121 46.117L24.0823 47.0988C24.3422 47.7008 24.8459 48.58 25.1741 49.0516C25.5285 49.5613 26.11 49.8651 26.7308 49.8651H30.5024C31.1232 49.8651 31.7047 49.5613 32.0591 49.0516C32.378 48.5931 32.8823 47.7208 33.1509 47.0988L35.5211 46.117C36.1319 46.3593 37.1091 46.6243 37.6738 46.7258C38.2848 46.8356 38.9109 46.6393 39.35 46.2003L42.0169 43.5334C42.4559 43.0944 42.6522 42.4683 42.5424 41.8572C42.4424 41.3011 42.1819 40.3302 41.9336 39.7045L42.9154 37.3343C43.5174 37.0744 44.3965 36.5707 44.8682 36.2425C45.3778 35.8881 45.6817 35.3066 45.6817 34.6858V30.9142C45.6817 30.2934 45.3778 29.7119 44.8682 29.3575ZM28.6165 40.3847C24.4344 40.3847 21.032 36.9823 21.032 32.8002C21.032 28.6181 24.4344 25.2157 28.6165 25.2157C32.7986 25.2157 36.201 28.6181 36.201 32.8002C36.201 36.9823 32.7986 40.3847 28.6165 40.3847Z" fill="url(#paint1_linear)"/>
<path d="M55.2887 30.9041C54.2415 30.9041 53.3925 31.753 53.3925 32.8002C53.3925 38.8042 51.2178 44.5958 47.269 49.1083C43.7221 53.1616 38.9726 55.9397 33.7584 57.0419C32.8452 55.1179 30.8841 53.7839 28.6166 53.7839C25.48 53.7839 22.9282 56.3357 22.9282 59.4723C22.9282 62.6088 25.48 65.1606 28.6166 65.1606C31.2843 65.1606 33.5278 63.3143 34.1393 60.8328C40.3121 59.6212 45.9432 56.382 50.1229 51.6056C54.6769 46.4017 57.1848 39.723 57.1848 32.8002C57.1848 31.753 56.3358 30.9041 55.2887 30.9041Z" fill="url(#paint2_linear)"/>
<defs>
<linearGradient id="paint0_linear" x1="17.1766" y1="0.439697" x2="17.1766" y2="34.6963" gradientUnits="userSpaceOnUse">
<stop stop-color="#FABE44"/>
<stop offset="1" stop-color="#FA4C6C"/>
</linearGradient>
<linearGradient id="paint1_linear" x1="28.6166" y1="15.7349" x2="28.6166" y2="49.8651" gradientUnits="userSpaceOnUse">
<stop stop-color="#FABE44"/>
<stop offset="1" stop-color="#FA4C6C"/>
</linearGradient>
<linearGradient id="paint2_linear" x1="40.0565" y1="30.9041" x2="40.0565" y2="65.1606" gradientUnits="userSpaceOnUse">
<stop stop-color="#FABE44"/>
<stop offset="1" stop-color="#FA4C6C"/>
</linearGradient>
</defs>
</svg>
