<svg width="35" height="35" viewBox="0 0 35 35" fill="none" xmlns="http://www.w3.org/2000/svg">
<g clip-path="url(#clip0)">
<path d="M30.0301 0.841309H4.86947C2.55609 0.841309 0.676025 2.72137 0.676025 5.03475V30.1954C0.676025 32.5074 2.55609 34.3889 4.86947 34.3889H30.0301C32.3421 34.3889 34.2236 32.5074 34.2236 30.1954V5.03475C34.2236 2.72137 32.3421 0.841309 30.0301 0.841309Z" fill="#3B5999"/>
<path d="M23.74 17.6151V13.4216C23.74 12.2642 24.6793 12.3733 25.8367 12.3733H27.9334V7.13147H23.74C20.265 7.13147 17.4498 9.94667 17.4498 13.4216V17.6151H13.2563V22.8569H17.4498V34.3889H23.74V22.8569H26.885L28.9818 17.6151H23.74Z" fill="white"/>
</g>
<defs>
<clipPath id="clip0">
<rect width="33.5476" height="33.5476" fill="white" transform="translate(0.676025 0.841309)"/>
</clipPath>
</defs>
</svg>
