<svg width="72" height="102" viewBox="0 0 72 102" fill="none" xmlns="http://www.w3.org/2000/svg">
<line x1="41.5" y1="62.0001" x2="41.5" y2="102" stroke="#BE76D7"/>
<circle cx="40.5" cy="47.5" r="31.5" fill="url(#paint0_linear)" fill-opacity="0.9"/>
<path d="M2.79 33.395C2.79 28.235 3.63 24.215 5.31 21.335C6.99 18.425 9.93 16.97 14.13 16.97C18.3 16.97 21.225 18.425 22.905 21.335C24.585 24.215 25.425 28.235 25.425 33.395C25.425 38.645 24.585 42.725 22.905 45.635C21.225 48.545 18.3 50 14.13 50C9.93 50 6.99 48.545 5.31 45.635C3.63 42.725 2.79 38.645 2.79 33.395ZM21.375 33.395C21.375 30.785 21.195 28.58 20.835 26.78C20.505 24.95 19.8 23.48 18.72 22.37C17.67 21.26 16.14 20.705 14.13 20.705C12.09 20.705 10.53 21.26 9.45 22.37C8.4 23.48 7.695 24.95 7.335 26.78C7.005 28.58 6.84 30.785 6.84 33.395C6.84 36.095 7.005 38.36 7.335 40.19C7.695 42.02 8.4 43.49 9.45 44.6C10.53 45.71 12.09 46.265 14.13 46.265C16.14 46.265 17.67 45.71 18.72 44.6C19.8 43.49 20.505 42.02 20.835 40.19C21.195 38.36 21.375 36.095 21.375 33.395ZM29.9668 21.2V17.465H38.4268V50H34.2868V21.2H29.9668ZM47.4409 50.27C46.6609 50.27 46.0009 50 45.4609 49.46C44.9209 48.92 44.6509 48.26 44.6509 47.48C44.6509 46.7 44.9209 46.04 45.4609 45.5C46.0009 44.96 46.6609 44.69 47.4409 44.69C48.1909 44.69 48.8209 44.96 49.3309 45.5C49.8709 46.04 50.1409 46.7 50.1409 47.48C50.1409 48.26 49.8709 48.92 49.3309 49.46C48.8209 50 48.1909 50.27 47.4409 50.27Z" fill="#E7E7E7"/>
<defs>
<linearGradient id="paint0_linear" x1="14" y1="30" x2="86" y2="62" gradientUnits="userSpaceOnUse">
<stop stop-color="#FA4C6C"/>
<stop offset="1" stop-color="#FAAA4C"/>
</linearGradient>
</defs>
</svg>
