<svg width="34" height="35" viewBox="0 0 34 35" fill="none" xmlns="http://www.w3.org/2000/svg">
<path d="M2.1946 3.17758C-0.441677 5.9159 0.0978799 8.82475 0.0978799 17.6617C0.0978799 25.0003 -1.18252 32.357 5.51861 34.0889C7.61114 34.627 26.1518 34.627 28.2415 34.0861C31.0315 33.3662 33.3016 31.1031 33.6119 27.1571C33.6552 26.6064 33.6552 8.72691 33.6105 8.16499C33.2806 3.96176 30.6932 1.53934 27.284 1.04871C26.5026 0.935488 26.346 0.901941 22.3371 0.894952C8.11714 0.901941 5.00002 0.268731 2.1946 3.17758Z" fill="url(#paint0_linear)"/>
<path d="M16.8688 5.28271C11.7933 5.28271 6.97367 4.83121 5.13275 9.55583C4.37234 11.5072 4.48277 14.0414 4.48277 17.6701C4.48277 20.8544 4.38073 23.8471 5.13275 25.7831C6.96948 30.5105 11.8283 30.0576 16.866 30.0576C21.7262 30.0576 26.7374 30.5636 28.6007 25.7831C29.3625 23.8121 29.2506 21.3156 29.2506 17.6701C29.2506 12.8309 29.5176 9.70679 27.1707 7.36126C24.7944 4.98497 21.5808 5.28271 16.8632 5.28271H16.8688ZM15.7589 7.51502C26.346 7.49824 27.6935 6.32128 26.9498 22.6715C26.6857 28.4543 22.2825 27.8197 16.8702 27.8197C7.00163 27.8197 6.71787 27.5373 6.71787 17.6646C6.71787 7.67716 7.50065 7.52061 15.7589 7.51222V7.51502ZM23.4805 9.5712C22.66 9.5712 21.9946 10.2366 21.9946 11.0571C21.9946 11.8776 22.66 12.543 23.4805 12.543C24.301 12.543 24.9663 11.8776 24.9663 11.0571C24.9663 10.2366 24.301 9.5712 23.4805 9.5712ZM16.8688 11.3087C13.3561 11.3087 10.5087 14.1574 10.5087 17.6701C10.5087 21.1829 13.3561 24.0302 16.8688 24.0302C20.3815 24.0302 23.2275 21.1829 23.2275 17.6701C23.2275 14.1574 20.3815 11.3087 16.8688 11.3087ZM16.8688 13.541C22.3273 13.541 22.3343 21.7993 16.8688 21.7993C11.4117 21.7993 11.4033 13.541 16.8688 13.541Z" fill="white"/>
<defs>
<linearGradient id="paint0_linear" x1="2.25893" y1="32.2998" x2="33.4378" y2="5.3148" gradientUnits="userSpaceOnUse">
<stop stop-color="#FFDD55"/>
<stop offset="0.5" stop-color="#FF543E"/>
<stop offset="1" stop-color="#C837AB"/>
</linearGradient>
</defs>
</svg>
