<svg width="35" height="36" viewBox="0 0 35 36" fill="none" xmlns="http://www.w3.org/2000/svg">
<path d="M28.578 34.7429C21.201 35.5302 13.8016 35.5302 6.42463 34.7429C3.48309 34.4289 1.15971 32.1056 0.845766 29.1638C0.05841 21.7868 0.05841 14.3877 0.845766 7.01068C1.15971 4.06915 3.48309 1.74577 6.42463 1.43183C13.8016 0.64447 21.2007 0.64447 28.5777 1.43183C31.5195 1.74577 33.8429 4.06915 34.1568 7.01068C34.9442 14.3877 34.9442 21.7868 34.1568 29.1638C33.8429 32.1056 31.5198 34.4289 28.578 34.7429Z" fill="url(#paint0_linear)"/>
<path d="M7.08325 14.6182H11.6505V28.7774H7.08325V14.6182Z" fill="white"/>
<path d="M23.7871 14.3135C20.4401 14.3135 18.9698 16.1737 18.5999 16.74V14.6182H14.3912V28.7775H18.9588V21.6652C18.9588 19.61 19.9048 18.0113 21.6993 18.0113C23.4935 18.0113 23.7871 20.0013 23.7871 22.4483V28.7775H28.3547V18.881C28.3547 16.3584 26.3097 14.3135 23.7871 14.3135Z" fill="white"/>
<path d="M12.0856 10.1159C12.0856 11.6174 10.8685 12.8345 9.36698 12.8345C7.86542 12.8345 6.64807 11.6174 6.64807 10.1159C6.64807 8.61432 7.86542 7.39697 9.36698 7.39697C10.8685 7.39697 12.0856 8.61432 12.0856 10.1159Z" fill="white"/>
<defs>
<linearGradient id="paint0_linear" x1="11.7073" y1="5.69083" x2="20.4313" y2="24.3562" gradientUnits="userSpaceOnUse">
<stop stop-color="#0077B5"/>
<stop offset="1" stop-color="#0066B2"/>
</linearGradient>
</defs>
</svg>
