<svg width="36" height="35" viewBox="0 0 36 35" fill="none" xmlns="http://www.w3.org/2000/svg">
<path d="M18.2459 34.9334C27.8925 34.9334 35.7126 27.1133 35.7126 17.4667C35.7126 7.82011 27.8925 0 18.2459 0C8.59929 0 0.779175 7.82011 0.779175 17.4667C0.779175 27.1133 8.59929 34.9334 18.2459 34.9334Z" fill="#41B4E6"/>
<path d="M35.713 17.4669C35.713 17.0413 35.6969 16.6196 35.667 16.2015L28.4279 8.96252L8.06421 16.9727L15.8555 24.764L15.9577 25.1319L16.09 24.9985L16.0905 24.9991L15.9577 25.1319L24.5763 33.7505C31.0937 31.2151 35.713 24.8808 35.713 17.4669Z" fill="#0091C8"/>
<path d="M16.5498 20.0117L24.4434 25.9714L28.428 8.96252L8.06421 16.9727L14.2607 19.0251L25.5693 11.4396L16.5498 20.0117Z" fill="white"/>
<path d="M14.2606 19.025L15.9577 25.1319L16.5497 20.0116L25.5693 11.4395L14.2606 19.025Z" fill="#D2D2D7"/>
<path d="M19.1153 21.9486L15.9578 25.132L16.5498 20.0117L19.1153 21.9486Z" fill="#B9B9BE"/>
</svg>
