<svg width="44" height="31" viewBox="0 0 44 31" fill="none" xmlns="http://www.w3.org/2000/svg">
<path d="M43.1088 5.26288C42.6101 3.40987 41.1492 1.94924 39.2965 1.45027C35.9116 0.523926 22.3719 0.523926 22.3719 0.523926C22.3719 0.523926 8.83253 0.523926 5.44761 1.41495C3.63057 1.9136 2.13397 3.4102 1.63533 5.26288C0.744629 8.64747 0.744629 15.6668 0.744629 15.6668C0.744629 15.6668 0.744629 22.7214 1.63533 26.0707C2.1343 27.9234 3.59493 29.3843 5.44794 29.8833C8.86817 30.8097 22.3722 30.8097 22.3722 30.8097C22.3722 30.8097 35.9116 30.8097 39.2965 29.9186C41.1495 29.42 42.6101 27.959 43.1091 26.1063C43.9998 22.7214 43.9998 15.7024 43.9998 15.7024C43.9998 15.7024 44.0354 8.64747 43.1088 5.26288Z" fill="#FF0000"/>
<path d="M18.0609 22.1516L29.3199 15.6669L18.0609 9.18213V22.1516Z" fill="white"/>
</svg>
